<?xml version="1.0" standalone="no"?>
<!DOCTYPE svg PUBLIC "-//W3C//DTD SVG 20010904//EN"
 "http://www.w3.org/TR/2001/REC-SVG-20010904/DTD/svg10.dtd">
<svg version="1.0" xmlns="http://www.w3.org/2000/svg"
 width="512.000000pt" height="512.000000pt" viewBox="0 0 512.000000 512.000000"
 preserveAspectRatio="xMidYMid meet">

<g transform="translate(0.000000,512.000000) scale(0.100000,-0.100000)"
fill="#000" stroke="none">
<path fill="#3747D6" d="M335 4883 c-76 -40 -115 -104 -115 -187 0 -30 5 -67 11 -83 5 -15
177 -196 382 -400 l372 -373 -372 -372 c-205 -205 -377 -386 -382 -401 -27
-71 -8 -169 43 -225 50 -56 158 -79 233 -51 15 5 196 177 401 382 l372 372
373 -372 c204 -205 385 -377 400 -382 75 -28 183 -5 233 51 51 56 70 154 43
225 -5 15 -177 196 -382 401 l-372 372 367 368 c201 202 373 381 382 399 35
70 13 186 -46 239 -56 51 -154 70 -225 43 -15 -5 -196 -177 -400 -382 l-373
-372 -372 372 c-205 205 -386 377 -401 382 -42 16 -137 13 -172 -6z"/>
<path fill="#9545ED" d="M3645 4886 c-445 -86 -791 -444 -856 -886 -18 -125 -7 -322 25 -438
101 -367 382 -646 753 -750 90 -24 113 -27 273 -27 160 0 183 3 273 27 373
104 651 382 755 755 24 90 27 113 27 273 0 160 -3 183 -27 273 -104 371 -382
651 -748 753 -79 21 -121 26 -250 30 -104 2 -178 -1 -225 -10z m345 -422 c116
-27 205 -79 300 -174 132 -132 190 -268 190 -450 0 -182 -58 -318 -190 -450
-132 -132 -268 -190 -450 -190 -181 0 -319 58 -450 190 -132 132 -190 268
-190 450 0 182 58 318 190 450 93 94 183 147 295 174 80 19 224 19 305 0z"/>
<path fill="#9545ED" d="M1085 2326 c-445 -86 -791 -444 -856 -886 -18 -125 -7 -322 25 -438
101 -367 382 -646 753 -750 90 -24 113 -27 273 -27 160 0 183 3 273 27 373
104 651 382 755 755 24 90 27 113 27 273 0 160 -3 183 -27 273 -104 371 -382
651 -748 753 -79 21 -121 26 -250 30 -104 2 -178 -1 -225 -10z m345 -422 c116
-27 205 -79 300 -174 132 -132 190 -268 190 -450 0 -182 -58 -318 -190 -450
-132 -132 -268 -190 -450 -190 -181 0 -319 58 -450 190 -132 132 -190 268
-190 450 0 182 58 318 190 450 93 94 183 147 295 174 80 19 224 19 305 0z"/>
<path fill="#3747D6" d="M2895 2323 c-76 -40 -115 -104 -115 -187 0 -30 5 -67 11 -83 5 -15
177 -196 382 -400 l372 -373 -372 -372 c-205 -205 -377 -386 -382 -401 -27
-71 -8 -169 43 -225 50 -56 158 -79 233 -51 15 5 196 177 401 382 l372 372
373 -372 c204 -205 385 -377 400 -382 75 -28 183 -5 233 51 51 56 70 154 43
225 -5 15 -177 196 -382 401 l-372 372 367 368 c201 202 373 381 382 399 35
70 13 186 -46 239 -56 51 -154 70 -225 43 -15 -5 -196 -177 -400 -382 l-373
-372 -372 372 c-205 205 -386 377 -401 382 -42 16 -137 13 -172 -6z"/>
</g>
</svg>
