<svg width="17" height="17" viewBox="0 0 17 17" fill="none" xmlns="http://www.w3.org/2000/svg">
<g clip-path="url(#clip0_147_300)">
<path d="M15.8148 8.58693C15.8148 8.04015 15.7657 7.5144 15.6746 7.00967H8.41217V9.99244H12.5621C12.3833 10.9563 11.8401 11.773 11.0234 12.3198V14.2545H13.5155C14.9736 12.9121 15.8148 10.9353 15.8148 8.58693Z" fill="white"/>
<path d="M8.41252 16.124C10.4945 16.124 12.24 15.4335 13.5158 14.2558L11.0238 12.321C10.3333 12.7837 9.45 13.0571 8.41252 13.0571C6.40415 13.0571 4.70422 11.7006 4.09785 9.87802H1.52167L1.52167 11.8759C2.79048 14.396 5.39821 16.124 8.41252 16.124Z" fill="white"/>
<path d="M4.09759 9.87699C3.94337 9.41433 3.85574 8.92012 3.85574 8.41189C3.85574 7.90367 3.94337 7.40946 4.09759 6.9468V4.94894H1.52141C0.981634 6.02348 0.700757 7.2094 0.701234 8.41189C0.701234 9.65617 0.999159 10.8339 1.52141 11.8748L4.09759 9.87699Z" fill="white"/>
<path d="M8.41246 3.76772C9.54457 3.76772 10.561 4.15678 11.3602 4.92087L13.5718 2.70921C12.2364 1.46493 10.4909 0.700836 8.41246 0.700836C5.39815 0.700836 2.79042 2.42881 1.52161 4.94891L4.09779 6.94676C4.70416 5.12416 6.40409 3.76772 8.41246 3.76772Z" fill="white"/>
</g>
<defs>
<clipPath id="clip0_147_300">
<rect width="16.8241" height="16.8241" fill="white"/>
</clipPath>
</defs>
</svg>
