<svg width="35" height="35" viewBox="0 0 35 35" fill="none" xmlns="http://www.w3.org/2000/svg">
<path d="M14.6854 4.11256L4.57918 12.2063C3.44168 13.1105 2.71251 15.0209 2.96043 16.4501L4.90001 28.0584C5.25001 30.1292 7.23334 31.8063 9.33334 31.8063H25.6667C27.7521 31.8063 29.75 30.1146 30.1 28.0584L32.0396 16.4501C32.2729 15.0209 31.5438 13.1105 30.4208 12.2063L20.3146 4.12716C18.7542 2.87299 16.2313 2.87297 14.6854 4.11256Z" stroke="white" stroke-opacity="0.933333" stroke-width="1.5" stroke-linecap="round" stroke-linejoin="round"/>
<path d="M17.5 22.6042C19.5135 22.6042 21.1458 20.9719 21.1458 18.9583C21.1458 16.9448 19.5135 15.3125 17.5 15.3125C15.4865 15.3125 13.8542 16.9448 13.8542 18.9583C13.8542 20.9719 15.4865 22.6042 17.5 22.6042Z" stroke="white" stroke-opacity="0.933333" stroke-width="1.5" stroke-linecap="round" stroke-linejoin="round"/>
</svg>
