<svg xmlns="http://www.w3.org/2000/svg" width="512" height="512" viewBox="0 0 512 512" version="1.1"><path d="M 35.010 22.316 C 27.643 24.662, 20.990 34.306, 21.006 42.616 C 21.022 51.285, 21.287 51.609, 60.325 90.756 L 97.477 128.013 60.774 164.756 C 35.896 189.661, 23.576 202.698, 22.536 205.218 C 16.867 218.942, 27.712 235.023, 42.616 234.994 C 51.285 234.978, 51.610 234.713, 90.750 195.682 L 128 158.536 165.250 195.682 C 204.390 234.713, 204.715 234.978, 213.384 234.994 C 224.842 235.017, 235.017 224.842, 234.994 213.384 C 234.978 204.715, 234.713 204.390, 195.682 165.250 L 158.536 128 195.682 90.750 C 234.713 51.610, 234.978 51.285, 234.994 42.616 C 235.023 27.712, 218.942 16.867, 205.218 22.536 C 202.698 23.576, 189.661 35.896, 164.756 60.774 L 128.013 97.477 90.756 60.325 C 59.303 28.960, 52.877 23.004, 49.500 22.092 C 44.601 20.768, 39.627 20.845, 35.010 22.316 M 291.010 278.316 C 283.643 280.662, 276.990 290.306, 277.006 298.616 C 277.022 307.285, 277.287 307.609, 316.325 346.756 L 353.477 384.013 316.774 420.756 C 291.896 445.661, 279.576 458.698, 278.536 461.218 C 272.867 474.942, 283.712 491.023, 298.616 490.994 C 307.285 490.978, 307.610 490.713, 346.750 451.682 L 384 414.536 421.250 451.682 C 460.390 490.713, 460.715 490.978, 469.384 490.994 C 480.842 491.017, 491.017 480.842, 490.994 469.384 C 490.978 460.715, 490.713 460.390, 451.682 421.250 L 414.536 384 451.682 346.750 C 490.713 307.610, 490.978 307.285, 490.994 298.616 C 491.023 283.712, 474.942 272.867, 461.218 278.536 C 458.698 279.576, 445.661 291.896, 420.756 316.774 L 384.013 353.477 346.756 316.325 C 315.303 284.960, 308.877 279.004, 305.500 278.092 C 300.601 276.768, 295.627 276.845, 291.010 278.316" stroke="none" fill="#3444d4" fill-rule="evenodd"/><path d="M 366.235 22.431 C 337.063 27.985, 313.203 43.040, 296.519 66.421 C 290.156 75.338, 283.403 89.963, 280.321 101.500 C 277.938 110.421, 277.650 113.280, 277.650 128 C 277.650 142.659, 277.942 145.591, 280.274 154.277 C 290.590 192.709, 319.274 221.409, 357.663 231.711 C 366.416 234.060, 369.318 234.350, 384 234.350 C 398.720 234.350, 401.579 234.062, 410.500 231.679 C 448.546 221.516, 477.542 192.522, 487.683 154.500 C 490.061 145.585, 490.350 142.710, 490.350 128 C 490.350 113.290, 490.061 110.415, 487.683 101.500 C 477.533 63.448, 448.210 34.158, 410.500 24.406 C 398.066 21.191, 377.556 20.276, 366.235 22.431 M 376 64.973 C 361.014 67.048, 350.585 72.322, 339.453 83.453 C 326.527 96.379, 320.821 109.792, 320.714 127.500 C 320.646 138.773, 322.123 145.222, 327.241 156 C 332.946 168.013, 343.987 179.054, 356 184.759 C 366.591 189.788, 373.149 191.327, 384 191.327 C 394.851 191.327, 401.409 189.788, 412 184.759 C 418.874 181.494, 422.039 179.171, 428.547 172.611 C 441.677 159.376, 447.246 146.089, 447.246 128 C 447.246 109.874, 441.660 96.566, 428.547 83.453 C 414.033 68.939, 395.196 62.314, 376 64.973 M 110.235 278.431 C 81.063 283.985, 57.203 299.040, 40.519 322.421 C 34.156 331.338, 27.403 345.963, 24.321 357.500 C 21.938 366.421, 21.650 369.280, 21.650 384 C 21.650 398.659, 21.942 401.591, 24.274 410.277 C 34.590 448.709, 63.274 477.409, 101.663 487.711 C 110.416 490.060, 113.318 490.350, 128 490.350 C 142.720 490.350, 145.579 490.062, 154.500 487.679 C 192.546 477.516, 221.542 448.522, 231.683 410.500 C 234.061 401.585, 234.350 398.710, 234.350 384 C 234.350 369.290, 234.061 366.415, 231.683 357.500 C 221.533 319.448, 192.210 290.158, 154.500 280.406 C 142.066 277.191, 121.556 276.276, 110.235 278.431 M 120 320.973 C 105.014 323.048, 94.585 328.322, 83.453 339.453 C 70.527 352.379, 64.821 365.792, 64.714 383.500 C 64.646 394.773, 66.123 401.222, 71.241 412 C 76.946 424.013, 87.987 435.054, 100 440.759 C 110.591 445.788, 117.149 447.327, 128 447.327 C 138.851 447.327, 145.409 445.788, 156 440.759 C 171.676 433.315, 185.056 417.053, 189.538 400 C 191.783 391.459, 191.783 376.541, 189.538 368 C 183.993 346.902, 164.988 327.776, 144.500 322.677 C 136.599 320.710, 126.811 320.029, 120 320.973" stroke="none" fill="#9444ec" fill-rule="evenodd"/></svg>