<svg width="35" height="35" viewBox="0 0 35 35" fill="none" xmlns="http://www.w3.org/2000/svg">
<path d="M17.7188 24.0625V27.125" stroke="white" stroke-opacity="0.933333" stroke-width="1.5" stroke-linecap="round" stroke-linejoin="round"/>
<path d="M10.4271 32.0834H25.0104V30.625C25.0104 29.0209 23.6979 27.7084 22.0937 27.7084H13.3437C11.7396 27.7084 10.4271 29.0209 10.4271 30.625V32.0834V32.0834Z" stroke="white" stroke-opacity="0.933333" stroke-width="1.5" stroke-miterlimit="10"/>
<path d="M8.96875 32.0834H26.4688" stroke="white" stroke-opacity="0.933333" stroke-width="1.5" stroke-linecap="round" stroke-linejoin="round"/>
<path d="M17.5 23.3333C11.8563 23.3333 7.29167 18.7687 7.29167 13.125V8.74996C7.29167 5.52704 9.90209 2.91663 13.125 2.91663H21.875C25.0979 2.91663 27.7083 5.52704 27.7083 8.74996V13.125C27.7083 18.7687 23.1438 23.3333 17.5 23.3333Z" stroke="white" stroke-opacity="0.933333" stroke-width="1.5" stroke-linecap="round" stroke-linejoin="round"/>
<path d="M7.97709 16.9896C6.88334 16.6396 5.92084 15.9979 5.16251 15.2396C3.85001 13.7812 2.97501 12.0312 2.97501 9.98958C2.97501 7.94792 4.57917 6.34375 6.62084 6.34375H7.56876C7.27709 7.01458 7.13126 7.75833 7.13126 8.53125V12.9063C7.13126 14.3646 7.43751 15.7354 7.97709 16.9896Z" stroke="white" stroke-opacity="0.933333" stroke-width="1.5" stroke-linecap="round" stroke-linejoin="round"/>
<path d="M27.0229 16.9896C28.1167 16.6396 29.0792 15.9979 29.8375 15.2396C31.15 13.7812 32.025 12.0312 32.025 9.98958C32.025 7.94792 30.4208 6.34375 28.3792 6.34375H27.4313C27.7229 7.01458 27.8688 7.75833 27.8688 8.53125V12.9063C27.8688 14.3646 27.5625 15.7354 27.0229 16.9896Z" stroke="white" stroke-opacity="0.933333" stroke-width="1.5" stroke-linecap="round" stroke-linejoin="round"/>
</svg>
