<svg width="138" height="38" viewBox="0 0 138 38" fill="none" xmlns="http://www.w3.org/2000/svg">
<path d="M0 37.1618V0.838234H8.39819C11.3644 0.838234 13.5706 1.54608 15.0166 2.96176C16.4997 4.34019 17.2413 6.24019 17.2413 8.66176V16.4853C17.2413 18.3108 16.8335 19.8569 16.0177 21.1235C15.202 22.3529 13.9784 23.2284 12.347 23.75L19.1879 37.1618H14.9054L8.39819 24.3088H3.8932V37.1618H0ZM13.3481 8.66176C13.3481 7.28333 12.9217 6.20294 12.0689 5.42059C11.2532 4.60098 10.0296 4.19118 8.39819 4.19118H3.8932V20.9559H8.39819C10.0667 20.9559 11.3088 20.5647 12.1245 19.7824C12.9403 18.9627 13.3481 17.8637 13.3481 16.4853V8.66176Z" fill="white"/>
<path d="M42.5667 37.1618L41.1206 33.5853C40.379 34.8892 39.3779 35.951 38.1173 36.7706C36.8566 37.5902 35.4477 38 33.8904 38C31.9252 38 30.3494 37.6647 29.1629 36.9941C27.9764 36.2863 27.1236 35.3363 26.6045 34.1441C26.1225 32.952 25.8815 31.6294 25.8815 30.1765V24.5882C25.8815 23.098 26.1225 21.7755 26.6045 20.6206C27.1236 19.4284 27.9764 18.4971 29.1629 17.8265C30.3494 17.1186 31.9252 16.7647 33.8904 16.7647H40.342V7.6C40.342 6.29608 39.9156 5.27157 39.0628 4.52647C38.2471 3.74412 36.9864 3.35294 35.2808 3.35294C33.6123 3.35294 32.3702 3.74412 31.5545 4.52647C30.7387 5.27157 30.3309 6.29608 30.3309 7.6V10.8971H26.4377V7.82353C26.4377 5.36471 27.1607 3.44608 28.6068 2.06765C30.0528 0.689216 32.2775 0 35.2808 0C38.2841 0 40.5274 0.689216 42.0105 2.06765C43.4936 3.44608 44.2352 5.36471 44.2352 7.82353V37.1618H42.5667ZM40.342 20.1176H33.8904C32.2219 20.1176 31.1095 20.5461 30.5534 21.4029C30.0343 22.2598 29.7747 23.3216 29.7747 24.5882V30.1765C29.7747 31.4431 30.0343 32.5049 30.5534 33.3618C31.1095 34.2186 32.2219 34.6471 33.8904 34.6471C35.0027 34.6471 36.0224 34.349 36.9493 33.7529C37.9134 33.1569 38.7105 32.449 39.3409 31.6294C39.9712 30.7725 40.3049 29.9716 40.342 29.2265V20.1176Z" fill="white"/>
<path d="M54.8024 0.838234H58.6956V33.8088H68.8736V37.1618H54.8024V0.838234Z" fill="white"/>
<path d="M75.5502 0.838234H79.4434V33.8088H89.6214V37.1618H75.5502V0.838234Z" fill="white"/>
<path d="M99.4169 37.1618V26.8794C96.8585 26.5814 94.949 25.7618 93.6884 24.4206C92.4648 23.0794 91.853 21.3284 91.853 19.1676V0.838234H95.7462V19.1676C95.7462 20.5461 96.2097 21.6451 97.1366 22.4647C98.0636 23.2471 99.4725 23.6382 101.364 23.6382C103.217 23.6382 104.589 23.2471 105.479 22.4647C106.406 21.6451 106.87 20.5461 106.87 19.1676V0.838234H110.763V19.1676C110.763 21.3284 110.151 23.0794 108.927 24.4206C107.704 25.7618 105.831 26.5814 103.31 26.8794V37.1618H99.4169Z" fill="white"/>
<path d="M119.368 0.838234H123.261V30.1765C123.261 31.4431 123.54 32.5049 124.096 33.3618C124.652 34.2186 125.783 34.6471 127.488 34.6471C128.675 34.6471 129.769 34.349 130.77 33.7529C131.771 33.1196 132.568 32.3745 133.161 31.5176C133.792 30.6235 134.107 29.8039 134.107 29.0588V0.838234H138V37.1618H136.331L134.885 33.5853C134.107 34.852 133.069 35.9137 131.771 36.7706C130.51 37.5902 129.101 38 127.544 38C125.542 38 123.929 37.6647 122.705 36.9941C121.519 36.2863 120.666 35.3363 120.147 34.1441C119.628 32.952 119.368 31.6294 119.368 30.1765V0.838234Z" fill="white"/>
</svg>
