<svg width="20" height="20" viewBox="0 0 20 20" fill="none" xmlns="http://www.w3.org/2000/svg">
<path d="M5.09548 15.8338C5.5693 14.7175 6.67556 13.9346 7.96469 13.9346L12.638 13.9346C13.9272 13.9346 15.0334 14.7175 15.5072 15.8338M13.4169 8.09287C13.4169 9.81355 12.022 11.2084 10.3014 11.2084C8.58068 11.2084 7.1858 9.81355 7.1858 8.09287C7.1858 6.3722 8.58068 4.97731 10.3014 4.97731C12.022 4.97731 13.4169 6.3722 13.4169 8.09287ZM18.0903 10.0401C18.0903 14.3418 14.6031 17.829 10.3014 17.829C5.99967 17.829 2.51245 14.3418 2.51245 10.0401C2.51245 5.73841 5.99967 2.25119 10.3014 2.25119C14.6031 2.25119 18.0903 5.73841 18.0903 10.0401Z" stroke="white" stroke-width="1.1216" stroke-linecap="round" stroke-linejoin="round"/>
</svg>
