<svg width="25" height="25" viewBox="0 0 25 25" fill="none" xmlns="http://www.w3.org/2000/svg">
<path d="M12.5 12.5C15.2614 12.5 17.5 10.2614 17.5 7.5C17.5 4.73858 15.2614 2.5 12.5 2.5C9.73858 2.5 7.5 4.73858 7.5 7.5C7.5 10.2614 9.73858 12.5 12.5 12.5Z" stroke="white" stroke-linecap="round" stroke-linejoin="round"/>
<path d="M3.90991 22.5C3.90991 18.63 7.75994 15.5 12.4999 15.5" stroke="white" stroke-linecap="round" stroke-linejoin="round"/>
<path d="M18.7 21.9C20.4673 21.9 21.9 20.4673 21.9 18.7C21.9 16.9327 20.4673 15.5 18.7 15.5C16.9327 15.5 15.5 16.9327 15.5 18.7C15.5 20.4673 16.9327 21.9 18.7 21.9Z" stroke="white" stroke-linecap="round" stroke-linejoin="round"/>
<path d="M22.5 22.5L21.5 21.5" stroke="white" stroke-linecap="round" stroke-linejoin="round"/>
</svg>
