<svg width="19" height="19" viewBox="0 0 19 19" fill="none" xmlns="http://www.w3.org/2000/svg">
<path d="M13.2411 7.78891V6.23113C13.2411 4.08028 11.4975 2.33667 9.34667 2.33667C7.19582 2.33667 5.45221 4.08028 5.45221 6.23113L5.45221 7.78891M9.34667 11.2939V12.8517M6.85422 16.3567H11.8391C13.1478 16.3567 13.8021 16.3567 14.302 16.102C14.7416 15.878 15.0991 15.5205 15.3231 15.0809C15.5778 14.581 15.5778 13.9267 15.5778 12.618L15.5778 11.5276C15.5778 10.2189 15.5778 9.5646 15.3231 9.06475C15.0991 8.62508 14.7416 8.26762 14.302 8.04359C13.8021 7.78891 13.1478 7.78891 11.8391 7.78891H6.85422C5.54556 7.78891 4.89123 7.78891 4.39139 8.04359C3.95171 8.26762 3.59425 8.62508 3.37022 9.06475C3.11554 9.5646 3.11554 10.2189 3.11554 11.5276L3.11554 12.618C3.11554 13.9267 3.11554 14.581 3.37022 15.0809C3.59425 15.5205 3.95171 15.878 4.39139 16.102C4.89123 16.3567 5.54556 16.3567 6.85422 16.3567Z" stroke="white" stroke-width="1.1216" stroke-linecap="round" stroke-linejoin="round"/>
</svg>
