<svg width="20" height="11" viewBox="0 0 20 11" fill="none" xmlns="http://www.w3.org/2000/svg">
<path d="M9.61062 10.2499L8.05439 10.2499L4.79937 6.32202L1.55623 10.2499L-6.38505e-08 10.2499L4.02719 5.37488L0 0.499878L1.55623 0.499878L9.61062 10.2499ZM9.61062 0.499878L5.98733 4.87345L5.21516 3.94023L8.05439 0.499878L9.61062 0.499878Z" fill="white" fill-opacity="0.933333"/>
<path d="M20 5.37488C20 6.05273 19.9089 6.6888 19.7268 7.28309C19.5446 7.86809 19.2833 8.38345 18.9427 8.82916C18.6101 9.27488 18.2101 9.62309 17.7429 9.8738C17.2756 10.1245 16.7569 10.2499 16.1866 10.2499L13.4187 10.2499C12.8405 10.2499 12.3178 10.1245 11.8506 9.8738C11.3833 9.62309 10.9794 9.27488 10.6389 8.82916C10.3062 8.38345 10.0488 7.86809 9.86668 7.28309C9.68453 6.68881 9.59345 6.05273 9.59345 5.37488C9.59345 4.70631 9.68453 4.07952 9.86668 3.49452C10.0488 2.90023 10.3062 2.38023 10.6389 1.93452C10.9794 1.47952 11.3833 1.12666 11.8506 0.875949C12.3178 0.625235 12.8405 0.499878 13.4187 0.499878L16.1866 0.499878C16.7569 0.499878 17.2756 0.625235 17.7429 0.875949C18.2101 1.12666 18.6101 1.47952 18.9427 1.93452C19.2833 2.38023 19.5446 2.90023 19.7268 3.49452C19.9089 4.07952 20 4.70631 20 5.37488ZM18.812 5.37488C18.812 4.73416 18.7051 4.14916 18.4913 3.61988C18.2854 3.09059 17.9844 2.67273 17.5884 2.36631C17.2004 2.05059 16.7331 1.89273 16.1866 1.89273L13.4187 1.89273C12.8722 1.89273 12.401 2.05059 12.005 2.36631C11.6169 2.67273 11.316 3.09059 11.1022 3.61988C10.8883 4.14916 10.7814 4.73416 10.7814 5.37488C10.7814 6.01559 10.8883 6.60059 11.1022 7.12988C11.316 7.64988 11.6169 8.06773 12.005 8.38345C12.401 8.69916 12.8722 8.85702 13.4187 8.85702L16.1866 8.85702C16.7331 8.85702 17.2004 8.69916 17.5884 8.38345C17.9844 8.06773 18.2854 7.64988 18.4913 7.12988C18.7051 6.60059 18.812 6.01559 18.812 5.37488Z" fill="white" fill-opacity="0.933333"/>
</svg>
