<svg xmlns="http://www.w3.org/2000/svg" width="800" height="800" viewBox="0 0 800 800" version="1.1"><path d="M 486.757 481.746 C 366.029 602.465, 322 647.089, 322 648.727 C 322 652.006, 324.732 652.342, 346.359 651.727 C 379.203 650.793, 401.227 645.839, 438.500 631 C 445.100 628.372, 455.450 624.938, 461.500 623.368 C 471.497 620.773, 474.050 620.512, 489.500 620.507 C 505.666 620.502, 507.047 620.659, 517.647 623.713 C 561.665 636.396, 590.978 661.059, 620.207 710 C 632.624 730.791, 644.238 748.249, 659.549 769.136 C 674.568 789.624, 678.810 794.303, 685.448 797.701 C 689.791 799.925, 691.318 800.179, 697.948 799.786 C 702.238 799.531, 707.012 798.589, 709 797.603 C 710.925 796.650, 730.205 778.011, 751.845 756.185 C 780.592 727.189, 791.742 715.295, 793.241 712.025 C 796.151 705.678, 796.070 696.027, 793.053 689.739 C 790.346 684.096, 786.004 680.058, 767.418 665.895 C 750.969 653.362, 732.132 640.692, 711.679 628.404 C 673.993 605.762, 651.852 583.816, 636.637 554.021 C 623.731 528.749, 618.599 505.824, 620.987 484.121 C 622.672 468.809, 625.980 457.207, 634.333 437.316 C 638.448 427.517, 643.200 415.225, 644.892 410 C 652.708 385.864, 656.986 359.508, 656.995 335.450 C 657 319.108, 656.550 317, 653.057 317 C 652.209 317, 577.374 391.136, 486.757 481.746" stroke="none" fill="#cab392" fill-rule="evenodd"/><path d="M 531.749 13.491 C 515.344 16.166, 496.914 23.383, 483.019 32.574 C 475.997 37.218, 464.500 46.643, 464.500 47.754 C 464.500 48.128, 462.994 50.024, 461.153 51.967 C 450.944 62.744, 440.681 79.449, 435.579 93.592 C 429.775 109.681, 428.546 117.187, 428.550 136.500 C 428.555 155.835, 430.049 164.899, 435.723 180 C 449.746 217.325, 481.588 245.938, 520.500 256.182 C 531.679 259.125, 533.697 259.346, 550 259.420 C 561.251 259.472, 570 259.003, 574.500 258.108 C 594.079 254.213, 614.778 244.604, 629.064 232.778 C 631.575 230.700, 634.126 229, 634.733 229 C 636.553 229, 648.766 215.073, 654.465 206.500 C 661.449 195.993, 666.477 185.799, 669.924 175.154 C 674.435 161.225, 675.500 153.843, 675.500 136.500 C 675.500 126.892, 674.946 117.704, 674.113 113.500 C 664.228 63.596, 626.864 25.675, 576.500 14.432 C 566.591 12.220, 542.637 11.716, 531.749 13.491" stroke="none" fill="#edf4f4" fill-rule="evenodd"/><path d="M 250.578 1.065 C 212.896 4.951, 178.980 14.544, 148.500 29.937 C 71.081 69.036, 20.771 140.819, 7.583 231 C -0.724 287.801, 7.227 352.678, 29.459 409.500 C 53.184 470.139, 88.722 521.244, 138.589 566.432 C 194.580 617.170, 256.397 646.526, 317.500 651.395 C 321.350 651.702, 323.938 651.701, 323.250 651.393 C 322.563 651.085, 322 649.856, 322 648.663 C 322 647.110, 368.940 599.555, 486.757 481.746 C 577.374 391.136, 652.209 317, 653.057 317 C 653.906 317, 655.144 317.544, 655.810 318.210 C 657.179 319.579, 657.065 318.206, 653.968 296 C 651.629 279.230, 647.638 263.377, 641.507 246.500 C 634.398 226.932, 636.002 228.057, 626 235.630 C 621.325 239.170, 612.550 244.503, 606.500 247.481 C 587.913 256.630, 571.886 260.241, 550 260.209 C 517.345 260.163, 487.410 247.583, 463.976 224.060 C 439.841 199.834, 427.912 170.871, 427.912 136.500 C 427.912 105.218, 437.694 78.673, 457.853 55.251 L 464.002 48.106 455.735 43.600 C 420.819 24.567, 374.769 9.767, 329 2.870 C 313.543 0.541, 266.226 -0.548, 250.578 1.065" stroke="none" fill="#e34c3c" fill-rule="evenodd"/></svg>