<svg width="38" height="38" viewBox="0 0 38 38" fill="none" xmlns="http://www.w3.org/2000/svg">
<path d="M19 35C27.8366 35 35 27.8366 35 19C35 10.1634 27.8366 3 19 3C10.1634 3 3 10.1634 3 19C3 27.8366 10.1634 35 19 35Z" stroke="white" stroke-width="1.5" stroke-linecap="round" stroke-linejoin="round"/>
<path d="M26.2619 15.5745V19.0352C26.2619 19.897 25.9769 20.623 25.468 21.1252C24.9658 21.6341 24.2398 21.9191 23.378 21.9191V23.1473C23.378 23.6087 22.8623 23.887 22.4823 23.6291L21.8241 23.1948C21.8851 22.9845 21.9123 22.7537 21.9123 22.5095V19.7477C21.9123 18.3634 20.9894 17.4406 19.6051 17.4406H14.9976C14.9026 17.4406 14.8144 17.4474 14.7262 17.4541V15.5745C14.7262 13.8441 15.8798 12.6906 17.6101 12.6906H23.378C25.1083 12.6906 26.2619 13.8441 26.2619 15.5745Z" stroke="white" stroke-width="1.5" stroke-miterlimit="10" stroke-linecap="round" stroke-linejoin="round"/>
<path d="M21.9123 19.7477V22.5095C21.9123 22.7537 21.8852 22.9845 21.8241 23.1948C21.5731 24.1923 20.7452 24.8166 19.6052 24.8166H17.7595L15.7102 26.1806C15.4048 26.3909 14.9977 26.167 14.9977 25.8006V24.8166C14.3055 24.8166 13.7288 24.5859 13.3284 24.1856C12.9213 23.7784 12.6906 23.2016 12.6906 22.5095V19.7477C12.6906 18.4584 13.4913 17.5695 14.7263 17.4541C14.8145 17.4474 14.9027 17.4406 14.9977 17.4406H19.6052C20.9895 17.4406 21.9123 18.3634 21.9123 19.7477Z" stroke="white" stroke-width="1.5" stroke-miterlimit="10" stroke-linecap="round" stroke-linejoin="round"/>
</svg>
