<svg width="243" height="52" viewBox="0 0 243 52" fill="none" xmlns="http://www.w3.org/2000/svg">
<path d="M5.784 1.32C6.63733 1.448 7.55467 1.53333 8.536 1.576C9.51733 1.61867 10.52 1.64 11.544 1.64C12.184 1.64 13.336 1.64 15 1.64C16.7067 1.64 18.6267 1.64 20.76 1.64C22.936 1.64 25.0907 1.64 27.224 1.64C29.4 1.64 31.3413 1.64 33.048 1.64C34.7547 1.64 35.9707 1.64 36.696 1.64C37.72 1.64 38.744 1.61867 39.768 1.576C40.792 1.53333 41.7093 1.448 42.52 1.32V6.632C41.752 6.54666 40.8347 6.504 39.768 6.504C38.744 6.46133 37.6987 6.44 36.632 6.44C35.9067 6.44 34.6907 6.44 32.984 6.44C31.32 6.44 29.4213 6.44 27.288 6.44C25.1547 6.44 23 6.44 20.824 6.44C18.6907 6.44 16.7707 6.44 15.064 6.44C13.4 6.44 12.2267 6.44 11.544 6.44C10.5627 6.44 9.58133 6.46133 8.6 6.504C7.61867 6.54666 6.68 6.58933 5.784 6.632V1.32ZM47.192 18.216C47.064 18.472 46.8933 18.792 46.68 19.176C46.5093 19.5173 46.4027 19.816 46.36 20.072C45.5067 23.2293 44.3333 26.408 42.84 29.608C41.3467 32.7653 39.4053 35.6453 37.016 38.248C33.6453 41.9173 29.9973 44.776 26.072 46.824C22.1893 48.872 18.2 50.472 14.104 51.624L10.136 47.08C14.6587 46.1413 18.8613 44.6693 22.744 42.664C26.6267 40.6587 29.9333 38.2267 32.664 35.368C34.6267 33.32 36.2267 31.0373 37.464 28.52C38.744 25.96 39.6827 23.528 40.28 21.224C39.8107 21.224 38.9147 21.224 37.592 21.224C36.312 21.224 34.7333 21.224 32.856 21.224C30.9787 21.224 28.952 21.224 26.776 21.224C24.6427 21.224 22.4667 21.224 20.248 21.224C18.072 21.224 16.024 21.224 14.104 21.224C12.2267 21.224 10.584 21.224 9.176 21.224C7.81067 21.224 6.85067 21.224 6.296 21.224C5.528 21.224 4.58933 21.2453 3.48 21.288C2.37067 21.288 1.21867 21.3307 0.0240002 21.416V16.04C1.21867 16.168 2.34933 16.2747 3.416 16.36C4.48267 16.4027 5.44267 16.424 6.296 16.424C6.76533 16.424 7.66133 16.424 8.984 16.424C10.3067 16.424 11.9067 16.424 13.784 16.424C15.6613 16.424 17.688 16.424 19.864 16.424C22.04 16.424 24.216 16.424 26.392 16.424C28.568 16.424 30.5947 16.424 32.472 16.424C34.3493 16.424 35.9493 16.424 37.272 16.424C38.6373 16.424 39.5547 16.424 40.024 16.424C40.7493 16.424 41.432 16.3813 42.072 16.296C42.712 16.2107 43.2027 16.0827 43.544 15.912L47.192 18.216ZM104.664 0.423996C104.621 1.23466 104.579 2.10933 104.536 3.048C104.493 3.944 104.472 4.92533 104.472 5.992C104.472 6.84533 104.472 7.93333 104.472 9.256C104.472 10.5787 104.472 11.9013 104.472 13.224C104.472 14.504 104.472 15.5493 104.472 16.36C104.472 20.2 104.323 23.464 104.024 26.152C103.768 28.84 103.363 31.144 102.808 33.064C102.296 34.9413 101.613 36.6053 100.76 38.056C99.9067 39.5067 98.904 40.9147 97.752 42.28C96.3867 43.9013 94.808 45.3307 93.016 46.568C91.2667 47.7627 89.4747 48.7653 87.64 49.576C85.8053 50.4293 84.0987 51.112 82.52 51.624L78.36 47.208C81.304 46.4827 84.0773 45.4587 86.68 44.136C89.3253 42.7707 91.6507 40.9573 93.656 38.696C94.808 37.3733 95.7253 36.0293 96.408 34.664C97.1333 33.256 97.6667 31.6987 98.008 29.992C98.392 28.2853 98.648 26.3013 98.776 24.04C98.904 21.7787 98.968 19.1333 98.968 16.104C98.968 15.2507 98.968 14.184 98.968 12.904C98.968 11.624 98.968 10.344 98.968 9.064C98.968 7.74133 98.968 6.71733 98.968 5.992C98.968 4.92533 98.9253 3.944 98.84 3.048C98.7973 2.10933 98.7333 1.23466 98.648 0.423996H104.664ZM74.968 0.935997C74.9253 1.53333 74.8613 2.25866 74.776 3.112C74.7333 3.96533 74.712 4.776 74.712 5.544C74.712 5.84266 74.712 6.52533 74.712 7.592C74.712 8.616 74.712 9.85333 74.712 11.304C74.712 12.7547 74.712 14.2907 74.712 15.912C74.712 17.5333 74.712 19.112 74.712 20.648C74.712 22.1413 74.712 23.4427 74.712 24.552C74.712 25.6613 74.712 26.4507 74.712 26.92C74.712 27.7307 74.7333 28.6053 74.776 29.544C74.8613 30.44 74.9253 31.1867 74.968 31.784H69.08C69.1653 31.272 69.2293 30.568 69.272 29.672C69.3573 28.7333 69.4 27.7947 69.4 26.856C69.4 26.4293 69.4 25.6613 69.4 24.552C69.4 23.4 69.4 22.0773 69.4 20.584C69.4 19.0907 69.4 17.5333 69.4 15.912C69.4 14.2907 69.4 12.7547 69.4 11.304C69.4 9.85333 69.4 8.616 69.4 7.592C69.4 6.52533 69.4 5.84266 69.4 5.544C69.4 4.98933 69.3787 4.24266 69.336 3.304C69.2933 2.32266 69.2293 1.53333 69.144 0.935997H74.968ZM125.528 21.288C126.168 21.3307 126.957 21.3947 127.896 21.48C128.835 21.5227 129.859 21.5653 130.968 21.608C132.12 21.608 133.272 21.608 134.424 21.608C135.107 21.608 136.152 21.608 137.56 21.608C139.011 21.608 140.696 21.608 142.616 21.608C144.536 21.608 146.563 21.608 148.696 21.608C150.872 21.608 153.027 21.608 155.16 21.608C157.336 21.608 159.384 21.608 161.304 21.608C163.267 21.608 164.952 21.608 166.36 21.608C167.768 21.608 168.813 21.608 169.496 21.608C171.117 21.608 172.504 21.5653 173.656 21.48C174.808 21.3947 175.725 21.3307 176.408 21.288V27.56C175.768 27.5173 174.808 27.4533 173.528 27.368C172.291 27.2827 170.968 27.24 169.56 27.24C168.877 27.24 167.811 27.24 166.36 27.24C164.909 27.24 163.224 27.24 161.304 27.24C159.427 27.24 157.4 27.24 155.224 27.24C153.048 27.24 150.872 27.24 148.696 27.24C146.563 27.24 144.536 27.24 142.616 27.24C140.739 27.24 139.075 27.24 137.624 27.24C136.173 27.24 135.107 27.24 134.424 27.24C132.675 27.24 131.011 27.2827 129.432 27.368C127.853 27.4107 126.552 27.4747 125.528 27.56V21.288ZM233.176 7.848C233.048 8.14666 232.941 8.50933 232.856 8.936C232.771 9.36266 232.707 9.704 232.664 9.96C232.536 11.24 232.323 12.968 232.024 15.144C231.725 17.2773 231.384 19.624 231 22.184C230.616 24.7013 230.232 27.1973 229.848 29.672C229.464 32.1467 229.101 34.408 228.76 36.456C228.419 38.504 228.163 40.104 227.992 41.256H222.296C222.467 40.3173 222.68 39.0587 222.936 37.48C223.235 35.8587 223.533 34.0667 223.832 32.104C224.131 30.1413 224.429 28.1147 224.728 26.024C225.069 23.9333 225.368 21.928 225.624 20.008C225.88 18.088 226.093 16.3813 226.264 14.888C226.435 13.3947 226.541 12.2427 226.584 11.432C225.432 11.432 223.939 11.432 222.104 11.432C220.269 11.432 218.285 11.432 216.152 11.432C214.019 11.432 211.928 11.432 209.88 11.432C207.875 11.432 206.104 11.432 204.568 11.432C203.032 11.432 201.965 11.432 201.368 11.432C200.216 11.432 199.149 11.4533 198.168 11.496C197.229 11.5387 196.248 11.6027 195.224 11.688V5.992C196.205 6.12 197.208 6.22666 198.232 6.312C199.256 6.35467 200.28 6.376 201.304 6.376C201.816 6.376 202.627 6.376 203.736 6.376C204.888 6.376 206.232 6.376 207.768 6.376C209.304 6.376 210.904 6.376 212.568 6.376C214.232 6.376 215.853 6.376 217.432 6.376C219.053 6.376 220.504 6.376 221.784 6.376C223.107 6.376 224.152 6.376 224.92 6.376C225.347 6.376 225.816 6.35467 226.328 6.312C226.883 6.26933 227.373 6.20533 227.8 6.12C228.269 6.03466 228.632 5.928 228.888 5.8L233.176 7.848ZM188.056 39.528C188.995 39.656 189.933 39.7627 190.872 39.848C191.853 39.8907 192.792 39.912 193.688 39.912H236.888C237.869 39.912 238.787 39.8693 239.64 39.784C240.536 39.6987 241.389 39.6133 242.2 39.528V45.352C241.347 45.2667 240.408 45.2027 239.384 45.16C238.36 45.1173 237.528 45.096 236.888 45.096H193.688C192.792 45.096 191.875 45.1173 190.936 45.16C189.997 45.2027 189.037 45.2667 188.056 45.352V39.528Z" fill="white"/>
</svg>
