<svg width="35" height="35" viewBox="0 0 35 35" fill="none" xmlns="http://www.w3.org/2000/svg">
<path d="M13.9562 18.1708L9.50833 22.6187" stroke="white" stroke-opacity="0.933333" stroke-width="1.5" stroke-miterlimit="10" stroke-linecap="round" stroke-linejoin="round"/>
<path d="M9.55208 18.2146L14 22.6625" stroke="white" stroke-opacity="0.933333" stroke-width="1.5" stroke-miterlimit="10" stroke-linecap="round" stroke-linejoin="round"/>
<path d="M19.7312 20.4166H19.7458" stroke="white" stroke-opacity="0.933333" stroke-width="2" stroke-miterlimit="10" stroke-linecap="round" stroke-linejoin="round"/>
<path d="M25.4771 20.4166H25.4917" stroke="white" stroke-opacity="0.933333" stroke-width="2" stroke-miterlimit="10" stroke-linecap="round" stroke-linejoin="round"/>
<path d="M22.6042 23.3042V23.275" stroke="white" stroke-opacity="0.933333" stroke-width="2" stroke-miterlimit="10" stroke-linecap="round" stroke-linejoin="round"/>
<path d="M22.6042 17.5583V17.5292" stroke="white" stroke-opacity="0.933333" stroke-width="2" stroke-miterlimit="10" stroke-linecap="round" stroke-linejoin="round"/>
<path d="M13.125 32.0833H21.875C29.1667 32.0833 32.0833 29.1667 32.0833 21.875V18.9583C32.0833 11.6667 29.1667 8.75 21.875 8.75H13.125C5.83334 8.75 2.91667 11.6667 2.91667 18.9583V21.875C2.91667 29.1667 5.83334 32.0833 13.125 32.0833Z" stroke="white" stroke-opacity="0.933333" stroke-width="1.5" stroke-linecap="round" stroke-linejoin="round"/>
<path d="M18.9729 2.91663L18.9583 4.38954C18.9437 5.19163 18.3021 5.83329 17.5 5.83329H17.4562C16.6542 5.83329 16.0125 6.48954 16.0125 7.29163C16.0125 8.09371 16.6687 8.74996 17.4708 8.74996H18.9292" stroke="white" stroke-opacity="0.933333" stroke-width="1.5" stroke-linecap="round" stroke-linejoin="round"/>
</svg>
