<svg width="35" height="35" viewBox="0 0 35 35" fill="none" xmlns="http://www.w3.org/2000/svg">
<path d="M17.5 21.875C19.9162 21.875 21.875 19.9162 21.875 17.5C21.875 15.0838 19.9162 13.125 17.5 13.125C15.0838 13.125 13.125 15.0838 13.125 17.5C13.125 19.9162 15.0838 21.875 17.5 21.875Z" stroke="white" stroke-opacity="0.933333" stroke-width="1.5" stroke-miterlimit="10" stroke-linecap="round" stroke-linejoin="round"/>
<path d="M2.91669 18.7834V16.2167C2.91669 14.7 4.15627 13.4459 5.68752 13.4459C8.3271 13.4459 9.40627 11.5792 8.07919 9.28963C7.32085 7.97713 7.77294 6.27088 9.10002 5.51255L11.6229 4.0688C12.775 3.38338 14.2625 3.79172 14.9479 4.9438L15.1084 5.22088C16.4209 7.51047 18.5792 7.51047 19.9063 5.22088L20.0667 4.9438C20.7521 3.79172 22.2396 3.38338 23.3917 4.0688L25.9146 5.51255C27.2417 6.27088 27.6938 7.97713 26.9354 9.28963C25.6084 11.5792 26.6875 13.4459 29.3271 13.4459C30.8438 13.4459 32.0979 14.6855 32.0979 16.2167V18.7834C32.0979 20.3 30.8584 21.5542 29.3271 21.5542C26.6875 21.5542 25.6084 23.4209 26.9354 25.7105C27.6938 27.0375 27.2417 28.7292 25.9146 29.4876L23.3917 30.9313C22.2396 31.6167 20.7521 31.2084 20.0667 30.0563L19.9063 29.7792C18.5938 27.4896 16.4354 27.4896 15.1084 29.7792L14.9479 30.0563C14.2625 31.2084 12.775 31.6167 11.6229 30.9313L9.10002 29.4876C7.77294 28.7292 7.32085 27.023 8.07919 25.7105C9.40627 23.4209 8.3271 21.5542 5.68752 21.5542C4.15627 21.5542 2.91669 20.3 2.91669 18.7834Z" stroke="white" stroke-opacity="0.933333" stroke-width="1.5" stroke-miterlimit="10" stroke-linecap="round" stroke-linejoin="round"/>
</svg>
