<svg width="35" height="35" viewBox="0 0 35 35" fill="none" xmlns="http://www.w3.org/2000/svg">
<path d="M32.0833 9.11454V16.552C32.0833 18.4041 31.4708 19.9645 30.3771 21.0437C29.2979 22.1374 27.7375 22.7499 25.8854 22.7499V25.3895C25.8854 26.3812 24.7771 26.9791 23.9604 26.425L22.5458 25.4916C22.6771 25.0395 22.7354 24.5437 22.7354 24.0187V18.0833C22.7354 15.1083 20.7521 13.125 17.7771 13.125H7.875C7.67083 13.125 7.48126 13.1396 7.29167 13.1542V9.11454C7.29167 5.39579 9.77084 2.91663 13.4896 2.91663H25.8854C29.6042 2.91663 32.0833 5.39579 32.0833 9.11454Z" stroke="white" stroke-opacity="0.933333" stroke-width="1.5" stroke-miterlimit="10" stroke-linecap="round" stroke-linejoin="round"/>
<path d="M22.7354 18.0834V24.0187C22.7354 24.5437 22.6771 25.0396 22.5458 25.4916C22.0063 27.6354 20.2271 28.9771 17.7771 28.9771H13.8104L9.40625 31.9083C8.75 32.3604 7.875 31.8792 7.875 31.0917V28.9771C6.3875 28.9771 5.14793 28.4813 4.28751 27.6208C3.41251 26.7458 2.91667 25.5062 2.91667 24.0187V18.0834C2.91667 15.3125 4.63751 13.4021 7.29167 13.1542C7.48126 13.1396 7.67083 13.125 7.875 13.125H17.7771C20.7521 13.125 22.7354 15.1084 22.7354 18.0834Z" stroke="white" stroke-opacity="0.933333" stroke-width="1.5" stroke-miterlimit="10" stroke-linecap="round" stroke-linejoin="round"/>
</svg>
