<svg width="20" height="20" viewBox="0 0 20 20" fill="none" xmlns="http://www.w3.org/2000/svg">
<path d="M15.7536 17.05L13.4169 14.7134M13.4169 14.7134L15.7536 12.3767M13.4169 14.7134L18.0903 14.7134M10.3014 12.7661H6.79636C5.70936 12.7661 5.16586 12.7661 4.72361 12.9003C3.72788 13.2023 2.94866 13.9816 2.64661 14.9773C2.51245 15.4196 2.51245 15.963 2.51245 17.05M12.2486 6.53501C12.2486 8.47077 10.6793 10.04 8.74358 10.04C6.80782 10.04 5.23857 8.47077 5.23857 6.53501C5.23857 4.59925 6.80782 3.03 8.74358 3.03C10.6793 3.03 12.2486 4.59925 12.2486 6.53501Z" stroke="white" stroke-width="1.402" stroke-linecap="round" stroke-linejoin="round"/>
</svg>
