<svg width="19" height="19" viewBox="0 0 19 19" fill="none" xmlns="http://www.w3.org/2000/svg">
<path d="M1.5578 5.45224L7.91738 9.90395C8.43236 10.2644 8.68986 10.4447 8.96994 10.5145C9.21734 10.5762 9.47609 10.5762 9.72349 10.5145C10.0036 10.4447 10.2611 10.2644 10.776 9.90395L17.1356 5.45224M5.29648 15.5778L13.3969 15.5778C14.7056 15.5778 15.3599 15.5778 15.8598 15.3231C16.2995 15.0991 16.6569 14.7417 16.8809 14.302C17.1356 13.8021 17.1356 13.1478 17.1356 11.8392V6.85425C17.1356 5.54559 17.1356 4.89126 16.8809 4.39142C16.6569 3.95174 16.2995 3.59428 15.8598 3.37025C15.3599 3.11557 14.7056 3.11557 13.3969 3.11557L5.29648 3.11557C3.98782 3.11557 3.33349 3.11557 2.83365 3.37025C2.39397 3.59428 2.03651 3.95174 1.81248 4.39142C1.5578 4.89126 1.5578 5.54559 1.5578 6.85425L1.5578 11.8392C1.5578 13.1478 1.5578 13.8021 1.81248 14.302C2.03651 14.7417 2.39397 15.0991 2.83365 15.3231C3.33349 15.5778 3.98782 15.5778 5.29648 15.5778Z" stroke="white" stroke-width="1.1216" stroke-linecap="round" stroke-linejoin="round"/>
</svg>
