<svg width="12" height="12" viewBox="0 0 12 12" fill="none" xmlns="http://www.w3.org/2000/svg">
<g clip-path="url(#clip0_97_869)">
<path d="M2.17471 8.77454C1.84419 8.77454 1.5335 8.90322 1.29978 9.13693C0.817392 9.61936 0.817392 10.4043 1.29978 10.8868C1.5335 11.1204 1.84419 11.2491 2.17471 11.2491C2.50522 11.2491 2.81592 11.1204 3.0496 10.8868C3.28329 10.6531 3.412 10.3423 3.412 10.0118C3.412 9.68135 3.28329 9.37062 3.0496 9.13693C2.81592 8.90325 2.50522 8.77454 2.17471 8.77454ZM2.60706 10.4442C2.49159 10.5597 2.33805 10.6233 2.17471 10.6233C2.01136 10.6233 1.85782 10.5597 1.74232 10.4442C1.50394 10.2058 1.50394 9.81789 1.74232 9.57948C1.85779 9.46397 2.01133 9.40038 2.17471 9.40038C2.33802 9.40038 2.49156 9.46397 2.60706 9.57944C2.72256 9.69494 2.78616 9.84848 2.78616 10.0118C2.78616 10.1752 2.72256 10.3287 2.60706 10.4442Z" fill="white"/>
<path d="M11.0614 9.53315C11.0541 9.27235 10.9383 9.02309 10.7438 8.84924L8.92279 7.22208C9.04076 7.09983 9.1506 6.97025 9.25157 6.83406C9.27305 6.81212 9.29124 6.78705 9.30556 6.75958C9.7601 6.11566 10.0214 5.33551 10.0214 4.51548C10.0214 3.48058 9.60343 2.34443 8.90346 1.47624C8.13579 0.524231 7.15026 -0.00012207 6.12836 -0.00012207C5.24026 -0.00012207 4.37976 0.396072 3.66574 1.12469C3.04069 1.2629 2.4952 1.55082 2.06945 1.97654C1.34688 2.69914 1.02075 3.76676 1.15117 4.98278C1.27011 6.09163 1.77795 7.19055 2.50973 7.9223C3.17887 8.59146 4.05626 8.97729 4.96377 9.04833L4.85442 10.9932C4.83975 11.2537 4.93415 11.5119 5.11338 11.7015C5.29262 11.8911 5.54508 11.9998 5.80602 11.9998H6.45067C6.71158 11.9998 6.96404 11.8911 7.14327 11.7015C7.32251 11.5119 7.41691 11.2537 7.40223 10.9932L7.27832 8.78874L8.94216 10.6508C9.116 10.8454 9.36526 10.9612 9.6261 10.9685C9.63493 10.9687 9.64369 10.9689 9.65249 10.9689C9.90404 10.9689 10.1486 10.868 10.3268 10.6897L10.7827 10.2339C10.9672 10.0494 11.0688 9.79399 11.0614 9.53315ZM9.64366 10.3429C9.55281 10.3403 9.4694 10.3016 9.40883 10.2339L7.74214 8.36863C7.55557 8.15984 7.29664 8.04851 7.03184 8.04851C6.89704 8.04851 6.76067 8.07737 6.63158 8.13689C6.24126 8.31693 5.82688 8.41365 5.41222 8.43177L8.52465 5.31934C8.50654 5.734 8.40981 6.14838 8.22974 6.53869C8.05325 6.92136 8.1464 7.36766 8.46147 7.64922L10.3267 9.31591C10.3945 9.37648 10.4332 9.45989 10.4358 9.55074C10.4383 9.64163 10.4044 9.72709 10.34 9.79134L9.88423 10.2472C9.82001 10.3115 9.73454 10.3455 9.64366 10.3429ZM5.47926 11.0284L5.59062 9.04725C5.94993 9.0177 6.30749 8.93787 6.65251 8.8063L6.77743 11.0284C6.78251 11.1192 6.75094 11.2055 6.68846 11.2716C6.62601 11.3377 6.54156 11.374 6.45067 11.374H5.80602C5.71513 11.374 5.63064 11.3377 5.56816 11.2716C5.50575 11.2055 5.47415 11.1191 5.47926 11.0284ZM2.51199 2.41908C3.0981 1.83297 3.98499 1.57082 5.00897 1.68048C5.98035 1.78468 6.93873 2.22534 7.57267 2.85932C8.03068 3.31734 8.33029 3.89176 8.45775 4.50119L4.66705 8.29193C4.644 8.31498 4.62533 8.34074 4.61097 8.36818C3.99528 8.24276 3.4145 7.94201 2.95231 7.47979C2.31833 6.84581 1.87763 5.8874 1.77346 4.91606C1.66359 3.89197 1.92589 3.00518 2.51199 2.41908ZM8.41627 1.8691C9.02946 2.6296 9.39551 3.61892 9.39551 4.51548C9.39551 5.0028 9.28519 5.47316 9.08565 5.89825C9.16677 5.46763 9.17396 5.02878 9.1104 4.60056C9.11009 4.56986 9.10522 4.5393 9.09594 4.50974C8.96201 3.733 8.59509 2.99663 8.01528 2.41678C7.2835 1.685 6.18462 1.17712 5.07576 1.05821C4.9709 1.04698 4.86725 1.03937 4.76472 1.03488C5.19596 0.767093 5.65954 0.625722 6.12836 0.625722C6.95726 0.625722 7.76978 1.06729 8.41627 1.8691Z" fill="white"/>
</g>
<defs>
<clipPath id="clip0_97_869">
<rect width="12" height="12" fill="white"/>
</clipPath>
</defs>
</svg>
