<svg width="24" height="24" viewBox="0 0 24 24" fill="none" xmlns="http://www.w3.org/2000/svg">
<path d="M12.12 12.78C12.05 12.77 11.96 12.77 11.88 12.78C10.12 12.72 8.71997 11.28 8.71997 9.50998C8.71997 7.69998 10.18 6.22998 12 6.22998C13.81 6.22998 15.28 7.69998 15.28 9.50998C15.27 11.28 13.88 12.72 12.12 12.78Z" stroke="white" stroke-opacity="0.933333" stroke-width="1.5" stroke-linecap="round" stroke-linejoin="round"/>
<path d="M18.7399 19.3801C16.9599 21.0101 14.5999 22.0001 11.9999 22.0001C9.39989 22.0001 7.03989 21.0101 5.25989 19.3801C5.35989 18.4401 5.95989 17.5201 7.02989 16.8001C9.76989 14.9801 14.2499 14.9801 16.9699 16.8001C18.0399 17.5201 18.6399 18.4401 18.7399 19.3801Z" stroke="white" stroke-opacity="0.933333" stroke-width="1.5" stroke-linecap="round" stroke-linejoin="round"/>
<path d="M12.0001 22C17.523 22 22.0001 17.5229 22.0001 12C22.0001 6.47715 17.523 2 12.0001 2C6.47728 2 2.00012 6.47715 2.00012 12C2.00012 17.5229 6.47728 22 12.0001 22Z" stroke="white" stroke-opacity="0.933333" stroke-width="1.5" stroke-linecap="round" stroke-linejoin="round"/>
</svg>
